<?xml version="1.0" encoding="UTF-8" standalone="no"?><svg xmlns="http://www.w3.org/2000/svg" xmlns:xlink="http://www.w3.org/1999/xlink" contentScriptType="application/ecmascript" contentStyleType="text/css" height="528px" preserveAspectRatio="none" style="width:690px;height:528px;background:#FFFFFF;" version="1.1" viewBox="0 0 690 528" width="690px" zoomAndPan="magnify"><defs><filter height="300%" id="f1bel4rybbcjsm" width="300%" x="-1" y="-1"><feGaussianBlur result="blurOut" stdDeviation="2.0"/><feColorMatrix in="blurOut" result="blurOut2" type="matrix" values="0 0 0 0 0 0 0 0 0 0 0 0 0 0 0 0 0 0 .4 0"/><feOffset dx="4.0" dy="4.0" in="blurOut2" result="blurOut3"/><feBlend in="SourceGraphic" in2="blurOut3" mode="normal"/></filter></defs><g><rect fill="#FEFECE" filter="url(#f1bel4rybbcjsm)" height="36.2969" rx="12.5" ry="12.5" style="stroke:#A80036;stroke-width:1.5;" width="40" x="10" y="245.1875"/><text fill="#000000" font-family="sans-serif" font-size="14" lengthAdjust="spacing" textLength="20" x="20" y="268.1826">.lit</text><rect fill="#FEFECE" filter="url(#f1bel4rybbcjsm)" height="36.2969" rx="12.5" ry="12.5" style="stroke:#A80036;stroke-width:1.5;" width="130" x="100" y="76.2969"/><text fill="#000000" font-family="sans-serif" font-size="14" lengthAdjust="spacing" textLength="110" x="110" y="99.292">Digital Gardens</text><rect fill="#FEFECE" filter="url(#f1bel4rybbcjsm)" height="36.2969" rx="12.5" ry="12.5" style="stroke:#A80036;stroke-width:1.5;" width="147" x="280" y="20"/><text fill="#000000" font-family="sans-serif" font-size="14" lengthAdjust="spacing" textLength="127" x="290" y="42.9951">Tools for Thought</text><path d="M230,94.4453 L240,94.4453 C255,94.4453 255,38.1484 270,38.1484 L280,38.1484 " fill="none" style="stroke:#A80036;stroke-width:1.0;"/><rect fill="#FEFECE" filter="url(#f1bel4rybbcjsm)" height="36.2969" rx="12.5" ry="12.5" style="stroke:#A80036;stroke-width:1.5;" width="146" x="280" y="76.2969"/><text fill="#000000" font-family="sans-serif" font-size="14" lengthAdjust="spacing" textLength="126" x="290" y="99.292">Learning in Public</text><rect fill="#FEFECE" filter="url(#f1bel4rybbcjsm)" height="36.2969" rx="12.5" ry="12.5" style="stroke:#A80036;stroke-width:1.5;" width="146" x="476" y="76.2969"/><text fill="#000000" font-family="sans-serif" font-size="14" lengthAdjust="spacing" textLength="126" x="486" y="99.292">Thinking in Public</text><path d="M426,94.4453 L436,94.4453 C451,94.4453 451,94.4453 466,94.4453 L476,94.4453 " fill="none" style="stroke:#A80036;stroke-width:1.0;"/><path d="M230,94.4453 L240,94.4453 C255,94.4453 255,94.4453 270,94.4453 L280,94.4453 " fill="none" style="stroke:#A80036;stroke-width:1.0;"/><rect fill="#FEFECE" filter="url(#f1bel4rybbcjsm)" height="36.2969" rx="12.5" ry="12.5" style="stroke:#A80036;stroke-width:1.5;" width="147" x="280" y="132.5938"/><text fill="#000000" font-family="sans-serif" font-size="14" lengthAdjust="spacing" textLength="127" x="290" y="155.5889">Knowledge Graph</text><path d="M230,94.4453 L240,94.4453 C255,94.4453 255,150.7422 270,150.7422 L280,150.7422 " fill="none" style="stroke:#A80036;stroke-width:1.0;"/><path d="M50,263.3359 L60,263.3359 C75,263.3359 75,94.4453 90,94.4453 L100,94.4453 " fill="none" style="stroke:#A80036;stroke-width:1.0;"/><rect fill="#FEFECE" filter="url(#f1bel4rybbcjsm)" height="36.2969" rx="12.5" ry="12.5" style="stroke:#A80036;stroke-width:1.5;" width="179" x="100" y="245.1875"/><text fill="#000000" font-family="sans-serif" font-size="14" lengthAdjust="spacing" textLength="159" x="110" y="268.1826">Literate Programming</text><rect fill="#FEFECE" filter="url(#f1bel4rybbcjsm)" height="36.2969" rx="12.5" ry="12.5" style="stroke:#A80036;stroke-width:1.5;" width="168" x="329" y="188.8906"/><text fill="#000000" font-family="sans-serif" font-size="14" lengthAdjust="spacing" textLength="148" x="339" y="211.8857">Read Eval Print Loop</text><path d="M279,263.3359 L289,263.3359 C304,263.3359 304,207.0391 319,207.0391 L329,207.0391 " fill="none" style="stroke:#A80036;stroke-width:1.0;"/><rect fill="#FEFECE" filter="url(#f1bel4rybbcjsm)" height="36.2969" rx="12.5" ry="12.5" style="stroke:#A80036;stroke-width:1.5;" width="91" x="329" y="245.1875"/><text fill="#000000" font-family="sans-serif" font-size="14" lengthAdjust="spacing" textLength="71" x="339" y="268.1826">Runbooks</text><path d="M279,263.3359 L289,263.3359 C304,263.3359 304,263.3359 319,263.3359 L329,263.3359 " fill="none" style="stroke:#A80036;stroke-width:1.0;"/><rect fill="#FEFECE" filter="url(#f1bel4rybbcjsm)" height="36.2969" rx="12.5" ry="12.5" style="stroke:#A80036;stroke-width:1.5;" width="182" x="329" y="301.4844"/><text fill="#000000" font-family="sans-serif" font-size="14" lengthAdjust="spacing" textLength="162" x="339" y="324.4795">Interactive Notebooks</text><path d="M279,263.3359 L289,263.3359 C304,263.3359 304,319.6328 319,319.6328 L329,319.6328 " fill="none" style="stroke:#A80036;stroke-width:1.0;"/><path d="M50,263.3359 L60,263.3359 C75,263.3359 75,263.3359 90,263.3359 L100,263.3359 " fill="none" style="stroke:#A80036;stroke-width:1.0;"/><rect fill="#FEFECE" filter="url(#f1bel4rybbcjsm)" height="36.2969" rx="12.5" ry="12.5" style="stroke:#A80036;stroke-width:1.5;" width="136" x="100" y="385.9297"/><text fill="#000000" font-family="sans-serif" font-size="14" lengthAdjust="spacing" textLength="116" x="110" y="408.9248">Guided Learning</text><rect fill="#FEFECE" filter="url(#f1bel4rybbcjsm)" height="36.2969" rx="12.5" ry="12.5" style="stroke:#A80036;stroke-width:1.5;" width="130" x="286" y="357.7813"/><text fill="#000000" font-family="sans-serif" font-size="14" lengthAdjust="spacing" textLength="110" x="296" y="380.7764">Show don't Tell</text><path d="M236,404.0781 L246,404.0781 C261,404.0781 261,375.9297 276,375.9297 L286,375.9297 " fill="none" style="stroke:#A80036;stroke-width:1.0;"/><rect fill="#FEFECE" filter="url(#f1bel4rybbcjsm)" height="36.2969" rx="12.5" ry="12.5" style="stroke:#A80036;stroke-width:1.5;" width="80" x="286" y="414.0781"/><text fill="#000000" font-family="sans-serif" font-size="14" lengthAdjust="spacing" textLength="60" x="296" y="437.0732">No Code</text><rect fill="#FEFECE" filter="url(#f1bel4rybbcjsm)" height="36.2969" rx="12.5" ry="12.5" style="stroke:#A80036;stroke-width:1.5;" width="89" x="416" y="414.0781"/><text fill="#000000" font-family="sans-serif" font-size="14" lengthAdjust="spacing" textLength="69" x="426" y="437.0732">Low Code</text><rect fill="#FEFECE" filter="url(#f1bel4rybbcjsm)" height="36.2969" rx="12.5" ry="12.5" style="stroke:#A80036;stroke-width:1.5;" width="116" x="555" y="414.0781"/><text fill="#000000" font-family="sans-serif" font-size="14" lengthAdjust="spacing" textLength="77" x="565" y="437.0732">More Code</text><path d="M505,432.2266 L515,432.2266 C530,432.2266 530,432.2266 545,432.2266 L555,432.2266 " fill="none" style="stroke:#A80036;stroke-width:1.0;"/><path d="M366,432.2266 L376,432.2266 C391,432.2266 391,432.2266 406,432.2266 L416,432.2266 " fill="none" style="stroke:#A80036;stroke-width:1.0;"/><path d="M236,404.0781 L246,404.0781 C261,404.0781 261,432.2266 276,432.2266 L286,432.2266 " fill="none" style="stroke:#A80036;stroke-width:1.0;"/><path d="M50,263.3359 L60,263.3359 C75,263.3359 75,404.0781 90,404.0781 L100,404.0781 " fill="none" style="stroke:#A80036;stroke-width:1.0;"/><rect fill="#FEFECE" filter="url(#f1bel4rybbcjsm)" height="36.2969" rx="12.5" ry="12.5" style="stroke:#A80036;stroke-width:1.5;" width="152" x="100" y="470.375"/><text fill="#000000" font-family="sans-serif" font-size="14" lengthAdjust="spacing" textLength="132" x="110" y="493.3701">Rapid Prototyping</text><path d="M50,263.3359 L60,263.3359 C75,263.3359 75,488.5234 90,488.5234 L100,488.5234 " fill="none" style="stroke:#A80036;stroke-width:1.0;"/><!--MD5=[060c2d28908fe0d007103fa1f718d95a]
@startmindmap
* .lit
	* Digital Gardens
		* Tools for Thought
		* Learning in Public
			* Thinking in Public
		* Knowledge Graph
	* Literate Programming
		* Read Eval Print Loop
		* Runbooks
		* Interactive Notebooks
	* Guided Learning
		* Show don't Tell
		* No Code
			* Low Code
				* More Code	
	* Rapid Prototyping
@endmindmap

PlantUML version 1.2021.7(Sun May 23 12:40:07 UTC 2021)
(GPL source distribution)
Java Runtime: Java(TM) SE Runtime Environment
JVM: Java HotSpot(TM) 64-Bit Server VM
Default Encoding: UTF-8
Language: en
Country: US
--></g></svg>