<?xml version="1.0" encoding="UTF-8" standalone="no"?><svg xmlns="http://www.w3.org/2000/svg" xmlns:xlink="http://www.w3.org/1999/xlink" contentScriptType="application/ecmascript" contentStyleType="text/css" height="644px" preserveAspectRatio="none" style="width:655px;height:644px;background:#FFFFFF;" version="1.1" viewBox="0 0 655 644" width="655px" zoomAndPan="magnify"><defs><filter height="300%" id="fmb4h8h192nok" width="300%" x="-1" y="-1"><feGaussianBlur result="blurOut" stdDeviation="2.0"/><feColorMatrix in="blurOut" result="blurOut2" type="matrix" values="0 0 0 0 0 0 0 0 0 0 0 0 0 0 0 0 0 0 .4 0"/><feOffset dx="4.0" dy="4.0" in="blurOut2" result="blurOut3"/><feBlend in="SourceGraphic" in2="blurOut3" mode="normal"/></filter></defs><g><text fill="#000000" font-family="monospace" font-size="18" font-weight="bold" lengthAdjust="spacing" textLength="44" x="136.5" y="28.5959">.lit</text><text fill="#000000" font-family="sans-serif" font-size="18" lengthAdjust="spacing" textLength="328" x="186.5" y="29.3547">Web Fetch API with Service Worker</text><rect fill="#FFFFFF" filter="url(#fmb4h8h192nok)" height="450.7422" style="stroke:#A80036;stroke-width:1.0;" width="10" x="146" y="155.0296"/><rect fill="#FFFFFF" filter="url(#fmb4h8h192nok)" height="365.4766" style="stroke:#A80036;stroke-width:1.0;" width="10" x="269.5" y="169.0296"/><rect fill="#FFFFFF" filter="url(#fmb4h8h192nok)" height="379.4766" style="stroke:#000000;stroke-width:2.0;" width="631" x="10" y="241.2952"/><rect fill="#FFFFFF" height="319.2109" style="stroke:none;stroke-width:1.0;" width="631" x="10" y="301.5608"/><rect fill="#FFFFFF" filter="url(#fmb4h8h192nok)" height="290.4063" style="stroke:#000000;stroke-width:2.0;" width="611" x="20" y="323.3655"/><rect fill="#FFFFFF" height="202.0078" style="stroke:none;stroke-width:1.0;" width="611" x="20" y="411.7639"/><rect fill="#FFFFFF" filter="url(#fmb4h8h192nok)" height="87.9375" style="stroke:#000000;stroke-width:2.0;" width="408" x="213" y="433.5686"/><rect fill="#FFFFFF" height="42.8047" style="stroke:none;stroke-width:1.0;" width="408" x="213" y="478.7014"/><line style="stroke:#A80036;stroke-width:1.0;stroke-dasharray:5.0,5.0;" x1="54" x2="54" y1="123.8967" y2="637.7717"/><line style="stroke:#A80036;stroke-width:1.0;stroke-dasharray:5.0,5.0;" x1="151" x2="151" y1="123.8967" y2="637.7717"/><line style="stroke:#A80036;stroke-width:1.0;stroke-dasharray:5.0,5.0;" x1="274" x2="274" y1="123.8967" y2="637.7717"/><line style="stroke:#A80036;stroke-width:1.0;stroke-dasharray:5.0,5.0;" x1="393" x2="393" y1="123.8967" y2="637.7717"/><line style="stroke:#A80036;stroke-width:1.0;stroke-dasharray:5.0,5.0;" x1="535" x2="535" y1="123.8967" y2="637.7717"/><text fill="#000000" font-family="sans-serif" font-size="14" lengthAdjust="spacing" textLength="43" x="30" y="120.595">Client</text><ellipse cx="54.5" cy="50.5999" fill="#FEFECE" filter="url(#fmb4h8h192nok)" rx="8" ry="8" style="stroke:#A80036;stroke-width:2.0;"/><path d="M54.5,58.5999 L54.5,85.5999 M41.5,66.5999 L67.5,66.5999 M54.5,85.5999 L41.5,100.5999 M54.5,85.5999 L67.5,100.5999 " fill="none" filter="url(#fmb4h8h192nok)" style="stroke:#A80036;stroke-width:2.0;"/><rect fill="#FEFECE" filter="url(#fmb4h8h192nok)" height="46.5938" style="stroke:#A80036;stroke-width:1.5;" width="120" x="89" y="72.303"/><text fill="#000000" font-family="sans-serif" font-size="14" lengthAdjust="spacing" textLength="106" x="96" y="92.2981">ServiceWorker</text><text fill="#000000" font-family="sans-serif" font-size="14" lengthAdjust="spacing" textLength="43" x="127.5" y="108.595">(local)</text><rect fill="#FEFECE" filter="url(#fmb4h8h192nok)" height="46.5938" style="stroke:#A80036;stroke-width:1.5;" width="99" x="223" y="72.303"/><text fill="#000000" font-family="sans-serif" font-size="14" lengthAdjust="spacing" textLength="85" x="230" y="92.2981">LightningFS</text><text fill="#000000" font-family="sans-serif" font-size="14" lengthAdjust="spacing" textLength="43" x="251" y="108.595">(local)</text><rect fill="#FEFECE" filter="url(#fmb4h8h192nok)" height="46.5938" style="stroke:#A80036;stroke-width:1.5;" width="110" x="336" y="72.303"/><text fill="#000000" font-family="sans-serif" font-size="14" lengthAdjust="spacing" textLength="96" x="343" y="92.2981">GitHub Pages</text><text fill="#000000" font-family="sans-serif" font-size="14" lengthAdjust="spacing" textLength="64" x="359" y="108.595">(remote)</text><rect fill="#FEFECE" filter="url(#fmb4h8h192nok)" height="46.5938" style="stroke:#A80036;stroke-width:1.5;" width="147" x="460" y="72.303"/><text fill="#000000" font-family="sans-serif" font-size="14" lengthAdjust="spacing" textLength="133" x="467" y="92.2981">GitHub Repository</text><text fill="#000000" font-family="sans-serif" font-size="14" lengthAdjust="spacing" textLength="51" x="508" y="108.595">(origin)</text><rect fill="#FFFFFF" filter="url(#fmb4h8h192nok)" height="450.7422" style="stroke:#A80036;stroke-width:1.0;" width="10" x="146" y="155.0296"/><rect fill="#FFFFFF" filter="url(#fmb4h8h192nok)" height="365.4766" style="stroke:#A80036;stroke-width:1.0;" width="10" x="269.5" y="169.0296"/><polygon fill="#A80036" points="134,151.0296,144,155.0296,134,159.0296,138,155.0296" style="stroke:#A80036;stroke-width:1.0;"/><line style="stroke:#A80036;stroke-width:1.0;" x1="54.5" x2="140" y1="155.0296" y2="155.0296"/><text fill="#000000" font-family="sans-serif" font-size="13" lengthAdjust="spacing" textLength="43" x="61.5" y="149.9636">fetch()</text><polygon fill="#A80036" points="257.5,165.0296,267.5,169.0296,257.5,173.0296,261.5,169.0296" style="stroke:#A80036;stroke-width:1.0;"/><line style="stroke:#A80036;stroke-width:1.0;" x1="156" x2="263.5" y1="169.0296" y2="169.0296"/><line style="stroke:#A80036;stroke-width:1.0;stroke-dasharray:2.0,2.0;" x1="279.5" x2="321.5" y1="213.2952" y2="213.2952"/><line style="stroke:#A80036;stroke-width:1.0;stroke-dasharray:2.0,2.0;" x1="321.5" x2="321.5" y1="213.2952" y2="226.2952"/><line style="stroke:#A80036;stroke-width:1.0;stroke-dasharray:2.0,2.0;" x1="280.5" x2="321.5" y1="226.2952" y2="226.2952"/><polygon fill="#A80036" points="290.5,222.2952,280.5,226.2952,290.5,230.2952,286.5,226.2952" style="stroke:#A80036;stroke-width:1.0;"/><text fill="#000000" font-family="sans-serif" font-size="13" lengthAdjust="spacing" textLength="72" x="286.5" y="193.0964">Check local</text><text fill="#000000" font-family="sans-serif" font-size="13" lengthAdjust="spacing" textLength="67" x="286.5" y="208.2293">filesystem</text><path d="M10,241.2952 L76,241.2952 L76,248.2952 L66,258.2952 L10,258.2952 L10,241.2952 " fill="#EEEEEE" style="stroke:#000000;stroke-width:1.0;"/><rect fill="none" height="379.4766" style="stroke:#000000;stroke-width:2.0;" width="631" x="10" y="241.2952"/><text fill="#000000" font-family="sans-serif" font-size="13" font-weight="bold" lengthAdjust="spacing" textLength="21" x="25" y="254.3621">alt</text><text fill="#000000" font-family="sans-serif" font-size="11" font-weight="bold" lengthAdjust="spacing" textLength="65" x="91" y="253.5056">[If Found]</text><polygon fill="#A80036" points="167,260.428,157,264.428,167,268.428,163,264.428" style="stroke:#A80036;stroke-width:1.0;"/><line style="stroke:#A80036;stroke-width:1.0;" x1="161" x2="268.5" y1="264.428" y2="264.428"/><polygon fill="#A80036" points="65.5,289.5608,55.5,293.5608,65.5,297.5608,61.5,293.5608" style="stroke:#A80036;stroke-width:1.0;"/><line style="stroke:#A80036;stroke-width:1.0;stroke-dasharray:2.0,2.0;" x1="59.5" x2="145" y1="293.5608" y2="293.5608"/><text fill="#000000" font-family="sans-serif" font-size="13" lengthAdjust="spacing" textLength="63" x="71.5" y="288.4949">Response</text><line style="stroke:#000000;stroke-width:1.0;stroke-dasharray:2.0,2.0;" x1="10" x2="641" y1="302.5608" y2="302.5608"/><text fill="#000000" font-family="sans-serif" font-size="11" font-weight="bold" lengthAdjust="spacing" textLength="93" x="15" y="312.7713">[If not found]</text><path d="M20,323.3655 L86,323.3655 L86,330.3655 L76,340.3655 L20,340.3655 L20,323.3655 " fill="#EEEEEE" style="stroke:#000000;stroke-width:1.0;"/><rect fill="none" height="290.4063" style="stroke:#000000;stroke-width:2.0;" width="611" x="20" y="323.3655"/><text fill="#000000" font-family="sans-serif" font-size="13" font-weight="bold" lengthAdjust="spacing" textLength="21" x="35" y="336.4324">alt</text><text fill="#000000" font-family="sans-serif" font-size="11" font-weight="bold" lengthAdjust="spacing" textLength="73" x="101" y="335.5759">[If Offline]</text><line style="stroke:#A80036;stroke-width:1.0;" x1="156" x2="198" y1="361.6311" y2="361.6311"/><line style="stroke:#A80036;stroke-width:1.0;" x1="198" x2="198" y1="361.6311" y2="374.6311"/><line style="stroke:#A80036;stroke-width:1.0;" x1="157" x2="198" y1="374.6311" y2="374.6311"/><polygon fill="#A80036" points="167,370.6311,157,374.6311,167,378.6311,163,374.6311" style="stroke:#A80036;stroke-width:1.0;"/><text fill="#000000" font-family="sans-serif" font-size="13" lengthAdjust="spacing" textLength="83" x="163" y="356.5652">Check Cache</text><polygon fill="#A80036" points="65.5,399.7639,55.5,403.7639,65.5,407.7639,61.5,403.7639" style="stroke:#A80036;stroke-width:1.0;"/><line style="stroke:#A80036;stroke-width:1.0;stroke-dasharray:2.0,2.0;" x1="59.5" x2="145" y1="403.7639" y2="403.7639"/><text fill="#000000" font-family="sans-serif" font-size="13" lengthAdjust="spacing" textLength="63" x="71.5" y="398.698">Response</text><line style="stroke:#000000;stroke-width:1.0;stroke-dasharray:2.0,2.0;" x1="20" x2="631" y1="412.7639" y2="412.7639"/><text fill="#000000" font-family="sans-serif" font-size="11" font-weight="bold" lengthAdjust="spacing" textLength="67" x="25" y="422.9744">[If Online]</text><path d="M213,433.5686 L279,433.5686 L279,440.5686 L269,450.5686 L213,450.5686 L213,433.5686 " fill="#EEEEEE" style="stroke:#000000;stroke-width:1.0;"/><rect fill="none" height="87.9375" style="stroke:#000000;stroke-width:2.0;" width="408" x="213" y="433.5686"/><text fill="#000000" font-family="sans-serif" font-size="13" font-weight="bold" lengthAdjust="spacing" textLength="21" x="228" y="446.6355">alt</text><text fill="#000000" font-family="sans-serif" font-size="11" font-weight="bold" lengthAdjust="spacing" textLength="308" x="294" y="445.7791">[If UnAuthenticated Check remote webserver]</text><polygon fill="#A80036" points="381,452.7014,391,456.7014,381,460.7014,385,456.7014" style="stroke:#A80036;stroke-width:1.0;"/><line style="stroke:#A80036;stroke-width:1.0;" x1="279.5" x2="387" y1="456.7014" y2="456.7014"/><polygon fill="#A80036" points="290.5,466.7014,280.5,470.7014,290.5,474.7014,286.5,470.7014" style="stroke:#A80036;stroke-width:1.0;"/><line style="stroke:#A80036;stroke-width:1.0;" x1="284.5" x2="392" y1="470.7014" y2="470.7014"/><line style="stroke:#000000;stroke-width:1.0;stroke-dasharray:2.0,2.0;" x1="213" x2="621" y1="479.7014" y2="479.7014"/><text fill="#000000" font-family="sans-serif" font-size="11" font-weight="bold" lengthAdjust="spacing" textLength="205" x="218" y="489.9119">[If Authenticated with GitHub]</text><polygon fill="#A80036" points="523.5,495.5061,533.5,499.5061,523.5,503.5061,527.5,499.5061" style="stroke:#A80036;stroke-width:1.0;"/><line style="stroke:#A80036;stroke-width:1.0;" x1="279.5" x2="529.5" y1="499.5061" y2="499.5061"/><polygon fill="#A80036" points="290.5,509.5061,280.5,513.5061,290.5,517.5061,286.5,513.5061" style="stroke:#A80036;stroke-width:1.0;"/><line style="stroke:#A80036;stroke-width:1.0;" x1="284.5" x2="534.5" y1="513.5061" y2="513.5061"/><polygon fill="#A80036" points="167,530.5061,157,534.5061,167,538.5061,163,534.5061" style="stroke:#A80036;stroke-width:1.0;"/><line style="stroke:#A80036;stroke-width:1.0;" x1="161" x2="273.5" y1="534.5061" y2="534.5061"/><line style="stroke:#A80036;stroke-width:1.0;stroke-dasharray:2.0,2.0;" x1="156" x2="198" y1="563.6389" y2="563.6389"/><line style="stroke:#A80036;stroke-width:1.0;stroke-dasharray:2.0,2.0;" x1="198" x2="198" y1="563.6389" y2="576.6389"/><line style="stroke:#A80036;stroke-width:1.0;stroke-dasharray:2.0,2.0;" x1="157" x2="198" y1="576.6389" y2="576.6389"/><polygon fill="#A80036" points="167,572.6389,157,576.6389,167,580.6389,163,576.6389" style="stroke:#A80036;stroke-width:1.0;"/><text fill="#000000" font-family="sans-serif" font-size="13" lengthAdjust="spacing" textLength="40" x="163" y="558.573">Cache</text><polygon fill="#A80036" points="65.5,601.7717,55.5,605.7717,65.5,609.7717,61.5,605.7717" style="stroke:#A80036;stroke-width:1.0;"/><line style="stroke:#A80036;stroke-width:1.0;stroke-dasharray:2.0,2.0;" x1="59.5" x2="150" y1="605.7717" y2="605.7717"/><text fill="#000000" font-family="sans-serif" font-size="13" lengthAdjust="spacing" textLength="63" x="71.5" y="600.7058">Response</text><!--MD5=[9044f5742190680e3d603fa20f647981]
@startuml
title **"".lit""** Web Fetch API with Service Worker
hide footbox

actor Client as c
participant "ServiceWorker\n(local)" as sw
participant "LightningFS\n(local)" as fs
participant "GitHub Pages\n(remote)" as ghp 
participant "GitHub Repository\n(origin)" as ghr

c -> sw : fetch()
activate sw
sw -> fs
activate fs
fs - -> fs : Check local\nfilesystem

alt If Found 
  sw <- fs
  c <- - sw : Response
else If not found
alt If Offline
  sw -> sw : Check Cache
  c <- - sw : Response
else If Online
alt If UnAuthenticated Check remote webserver
  fs -> ghp
  ghp -> fs
else If Authenticated with GitHub
  fs -> ghr
  ghr -> fs
end
fs -> sw - -
sw - -> sw : Cache
c <- - sw - - : Response
end
end
@enduml

PlantUML version 1.2021.7(Sun May 23 12:40:07 UTC 2021)
(GPL source distribution)
Java Runtime: Java(TM) SE Runtime Environment
JVM: Java HotSpot(TM) 64-Bit Server VM
Default Encoding: UTF-8
Language: en
Country: US
--></g></svg>